Coordinates
version=1
nRows=4
nColumns=63
inDegrees=yes

Units are S.I. units (second, meters, Newtons, ...)
If the header above contains a line with 'inDegrees', this indicates whether rotational values are in degrees (yes) or radians (no).

endheader
time	pelvis_tilt	pelvis_list	pelvis_rotation	pelvis_tx	pelvis_ty	pelvis_tz	hip_flexion_r	hip_adduction_r	hip_rotation_r	knee_angle_r	knee_angle_r_beta	ankle_angle_r	subtalar_angle_r	mtp_angle_r	hip_flexion_l	hip_adduction_l	hip_rotation_l	knee_angle_l	knee_angle_l_beta	ankle_angle_l	subtalar_angle_l	mtp_angle_l	L5_S1_Flex_Ext	L5_S1_Lat_Bending	L5_S1_axial_rotation	L4_L5_Flex_Ext	L4_L5_Lat_Bending	L4_L5_axial_rotation	L3_L4_Flex_Ext	L3_L4_Lat_Bending	L3_L4_axial_rotation	L2_L3_Flex_Ext	L2_L3_Lat_Bending	L2_L3_axial_rotation	L1_L2_Flex_Ext	L1_L2_Lat_Bending	L1_L2_axial_rotation	L1_T12_Flex_Ext	L1_T12_Lat_Bending	L1_T12_axial_rotation	Abs_r3	Abs_r2	Abs_r1	Abs_t1	Abs_t2	neck_flexion	neck_bending	neck_rotation	arm_flex_r	arm_add_r	arm_rot_r	elbow_flex_r	pro_sup_r	wrist_flex_r	wrist_dev_r	arm_flex_l	arm_add_l	arm_rot_l	elbow_flex_l	pro_sup_l	wrist_flex_l	wrist_dev_l
      2.79661017	     -3.36405240	     -7.94785255	     87.41072405	      0.17770293	      0.90376659	      0.64549368	      4.28504699	     -2.23873157	    -11.27797082	     15.60856476	      0.27242085	     33.34963783	     18.49689220	      0.00000000	      2.76964568	      1.31174796	     -2.44182817	     10.83082931	      0.18903363	     25.74403354	     -4.16181390	      0.00000000	     -0.04243228	      0.06666134	      0.00470713	     -0.07880098	      0.08865959	      0.00500132	     -0.06971199	      0.16208039	      0.00500132	     -0.04849585	      0.16208039	      0.00411874	     -0.03940261	      0.13593581	      0.00382454	     -0.02424580	      0.10325842	      0.00353035	     -0.30308952	      0.75408644	      0.02617963	      0.00000000	      0.00000000	     12.11770566	      1.86992532	      4.61888893	     -7.68389885	    -17.56908602	     30.18027880	     31.64026548	     65.40630641	     -5.34060792	     -0.61908991	      4.44641269	     -8.90645271	    151.48691654	      3.01311071	      9.90017627	     -1.31673854	     -6.23151770
      2.81355932	     -3.49926337	     -7.93219585	     87.07021200	      0.17811996	      0.90412265	      0.64579211	      4.38257305	     -2.34836559	    -10.84140093	     15.63897398	      0.27295159	     33.03446347	     18.46635464	      0.00000000	      2.74421954	      1.48271115	     -2.35833961	     10.73972208	      0.18744351	     25.63562169	     -4.38417857	      0.00000000	     -0.04309223	      0.04371323	      0.14575855	     -0.08002659	      0.05813859	      0.15486846	     -0.07079623	      0.10628434	      0.15486846	     -0.04925011	      0.10628434	      0.12753873	     -0.04001545	      0.08914001	      0.11842882	     -0.02462290	      0.06771179	      0.10931891	     -0.30780351	      0.49449277	      0.81066533	      0.00000000	      0.00000000	     12.42056767	      1.52489314	      3.84237232	     -8.11869848	    -17.61631672	     27.62497324	     31.98249690	     66.56088578	     -4.34055768	     -1.50818708	      4.73481673	     -9.02965018	    152.83812519	      2.92855816	     11.34472274	     -1.41731076	     -6.38388490
      2.83050847	     -3.58301823	     -7.88786157	     86.87042860	      0.17828556	      0.90453889	      0.64598642	      4.39594410	     -2.40888585	    -10.56162011	     15.60334626	      0.27232977	     32.71289594	     18.46229036	      0.00000000	      2.69872401	      1.61942550	     -2.11356021	     10.69221840	      0.18661442	     25.48440910	     -4.71951431	      0.00000000	     -0.05079686	      0.03067405	      0.24785293	     -0.09433485	      0.04079648	      0.26334374	     -0.08345416	      0.07458087	      0.26334374	     -0.05805573	      0.07458087	      0.21687131	     -0.04716996	      0.06255051	      0.20138050	     -0.02902533	      0.04751410	      0.18588970	     -0.36283689	      0.34699094	      1.37848364	      0.00000000	      0.00000000	     12.72672269	      1.19457903	      3.40640845	     -8.90597366	    -17.38442328	     22.29021151	     32.75864729	     72.40347101	     -3.01643373	     -1.20504398	      4.95787932	     -9.16315572	    153.10468022	      2.94009327	     12.51417038	     -1.48670370	     -6.65044818
      2.84745763	     -3.63464127	     -7.87925958	     86.78349102	      0.17838406	      0.90512157	      0.64630611	      4.43552916	     -2.44156850	    -10.50841789	     15.56914335	      0.27173281	     32.45889151	     18.50606709	      0.00000000	      2.72296474	      1.69031497	     -2.02999649	     10.71285252	      0.18697455	     25.38617356	     -4.63199650	      0.00000000	     -0.05095051	      0.01739061	      0.24474780	     -0.09462019	      0.02312951	      0.26004454	     -0.08370659	      0.04228352	      0.26004454	     -0.05823134	      0.04228352	      0.21415433	     -0.04731264	      0.03546293	      0.19885759	     -0.02911312	      0.02693805	      0.18356085	     -0.36393439	      0.19672603	      1.36121386	      0.00000000	      0.00000000	     12.64495364	      1.19429308	      3.33143949	     -8.60000127	    -17.85443810	     22.02908892	     32.95777759	     72.39119936	     -3.01874026	     -1.36663369	      4.92734024	     -9.33598921	    153.08316275	      2.92607117	     12.50078031	     -1.48854390	     -6.68276796
